<mxfile host="app.diagrams.net" modified="2024-07-06T01:36:20.309Z" agent="Mozilla/5.0 (Windows NT 10.0; Win64; x64) AppleWebKit/537.36 (KHTML, like Gecko) Chrome/125.0.0.0 Safari/537.36" etag="0Yt7g2VL3ECxsxHvaJyX" version="24.6.4" type="github" pages="2">
  <diagram id="C5RBs43oDa-KdzZeNtuy" name="Page-1">
    <mxGraphModel dx="1050" dy="569" grid="1" gridSize="10" guides="1" tooltips="1" connect="1" arrows="1" fold="1" page="1" pageScale="1" pageWidth="827" pageHeight="1169" math="0" shadow="0">
      <root>
        <mxCell id="WIyWlLk6GJQsqaUBKTNV-0" />
        <mxCell id="WIyWlLk6GJQsqaUBKTNV-1" parent="WIyWlLk6GJQsqaUBKTNV-0" />
        <mxCell id="A0TnICawihOw8JF30zuv-5" value="" style="edgeStyle=orthogonalEdgeStyle;rounded=1;orthogonalLoop=1;jettySize=auto;html=1;labelBackgroundColor=none;strokeColor=#0B4D6A;fontColor=default;" edge="1" parent="WIyWlLk6GJQsqaUBKTNV-1" source="A0TnICawihOw8JF30zuv-1" target="A0TnICawihOw8JF30zuv-4">
          <mxGeometry relative="1" as="geometry" />
        </mxCell>
        <mxCell id="A0TnICawihOw8JF30zuv-1" value="选择需要修改的资产信息" style="rounded=1;whiteSpace=wrap;html=1;labelBackgroundColor=none;fillColor=#09555B;strokeColor=#BAC8D3;fontColor=#EEEEEE;" vertex="1" parent="WIyWlLk6GJQsqaUBKTNV-1">
          <mxGeometry x="140" y="170" width="170" height="50" as="geometry" />
        </mxCell>
        <mxCell id="A0TnICawihOw8JF30zuv-8" value="" style="edgeStyle=orthogonalEdgeStyle;rounded=1;orthogonalLoop=1;jettySize=auto;html=1;labelBackgroundColor=none;strokeColor=#0B4D6A;fontColor=default;" edge="1" parent="WIyWlLk6GJQsqaUBKTNV-1" source="A0TnICawihOw8JF30zuv-4" target="A0TnICawihOw8JF30zuv-7">
          <mxGeometry relative="1" as="geometry" />
        </mxCell>
        <mxCell id="A0TnICawihOw8JF30zuv-4" value="选择需要更改的资产信息字段" style="whiteSpace=wrap;html=1;rounded=1;labelBackgroundColor=none;fillColor=#09555B;strokeColor=#BAC8D3;fontColor=#EEEEEE;" vertex="1" parent="WIyWlLk6GJQsqaUBKTNV-1">
          <mxGeometry x="142.5" y="270" width="165" height="60" as="geometry" />
        </mxCell>
        <mxCell id="A0TnICawihOw8JF30zuv-6" style="edgeStyle=orthogonalEdgeStyle;rounded=1;orthogonalLoop=1;jettySize=auto;html=1;exitX=0.5;exitY=1;exitDx=0;exitDy=0;entryX=0.471;entryY=0.2;entryDx=0;entryDy=0;entryPerimeter=0;labelBackgroundColor=none;strokeColor=#0B4D6A;fontColor=default;" edge="1" parent="WIyWlLk6GJQsqaUBKTNV-1" target="A0TnICawihOw8JF30zuv-1">
          <mxGeometry relative="1" as="geometry">
            <mxPoint x="220" y="120" as="sourcePoint" />
          </mxGeometry>
        </mxCell>
        <mxCell id="A0TnICawihOw8JF30zuv-10" value="" style="edgeStyle=orthogonalEdgeStyle;rounded=1;orthogonalLoop=1;jettySize=auto;html=1;labelBackgroundColor=none;strokeColor=#0B4D6A;fontColor=default;" edge="1" parent="WIyWlLk6GJQsqaUBKTNV-1" source="A0TnICawihOw8JF30zuv-7" target="A0TnICawihOw8JF30zuv-9">
          <mxGeometry relative="1" as="geometry" />
        </mxCell>
        <mxCell id="A0TnICawihOw8JF30zuv-7" value="导出excel文件" style="whiteSpace=wrap;html=1;rounded=1;labelBackgroundColor=none;fillColor=#09555B;strokeColor=#BAC8D3;fontColor=#EEEEEE;" vertex="1" parent="WIyWlLk6GJQsqaUBKTNV-1">
          <mxGeometry x="142.5" y="380" width="165" height="60" as="geometry" />
        </mxCell>
        <mxCell id="A0TnICawihOw8JF30zuv-12" value="" style="edgeStyle=orthogonalEdgeStyle;rounded=1;orthogonalLoop=1;jettySize=auto;html=1;labelBackgroundColor=none;strokeColor=#0B4D6A;fontColor=default;" edge="1" parent="WIyWlLk6GJQsqaUBKTNV-1" source="A0TnICawihOw8JF30zuv-9" target="A0TnICawihOw8JF30zuv-11">
          <mxGeometry relative="1" as="geometry" />
        </mxCell>
        <mxCell id="A0TnICawihOw8JF30zuv-9" value="对excel文件进行修改并保存" style="whiteSpace=wrap;html=1;rounded=1;labelBackgroundColor=none;fillColor=#09555B;strokeColor=#BAC8D3;fontColor=#EEEEEE;" vertex="1" parent="WIyWlLk6GJQsqaUBKTNV-1">
          <mxGeometry x="142.5" y="470" width="167.5" height="60" as="geometry" />
        </mxCell>
        <mxCell id="A0TnICawihOw8JF30zuv-14" value="" style="edgeStyle=orthogonalEdgeStyle;rounded=1;orthogonalLoop=1;jettySize=auto;html=1;labelBackgroundColor=none;strokeColor=#0B4D6A;fontColor=default;" edge="1" parent="WIyWlLk6GJQsqaUBKTNV-1" source="A0TnICawihOw8JF30zuv-11" target="A0TnICawihOw8JF30zuv-13">
          <mxGeometry relative="1" as="geometry" />
        </mxCell>
        <mxCell id="A0TnICawihOw8JF30zuv-11" value="将修改后的文件导入到系统中" style="whiteSpace=wrap;html=1;rounded=1;labelBackgroundColor=none;fillColor=#09555B;strokeColor=#BAC8D3;fontColor=#EEEEEE;" vertex="1" parent="WIyWlLk6GJQsqaUBKTNV-1">
          <mxGeometry x="148.75" y="585" width="155" height="60" as="geometry" />
        </mxCell>
        <mxCell id="A0TnICawihOw8JF30zuv-16" value="" style="edgeStyle=orthogonalEdgeStyle;rounded=1;orthogonalLoop=1;jettySize=auto;html=1;labelBackgroundColor=none;strokeColor=#0B4D6A;fontColor=default;" edge="1" parent="WIyWlLk6GJQsqaUBKTNV-1" source="A0TnICawihOw8JF30zuv-13" target="A0TnICawihOw8JF30zuv-15">
          <mxGeometry relative="1" as="geometry" />
        </mxCell>
        <mxCell id="A0TnICawihOw8JF30zuv-24" style="edgeStyle=orthogonalEdgeStyle;rounded=1;orthogonalLoop=1;jettySize=auto;html=1;exitX=1;exitY=0.5;exitDx=0;exitDy=0;labelBackgroundColor=none;strokeColor=#0B4D6A;fontColor=default;" edge="1" parent="WIyWlLk6GJQsqaUBKTNV-1" source="A0TnICawihOw8JF30zuv-13">
          <mxGeometry relative="1" as="geometry">
            <mxPoint x="450" y="770" as="targetPoint" />
          </mxGeometry>
        </mxCell>
        <mxCell id="A0TnICawihOw8JF30zuv-13" value="验证资产信息是否合法" style="rhombus;whiteSpace=wrap;html=1;rounded=1;labelBackgroundColor=none;fillColor=#09555B;strokeColor=#BAC8D3;fontColor=#EEEEEE;" vertex="1" parent="WIyWlLk6GJQsqaUBKTNV-1">
          <mxGeometry x="121.25" y="730" width="210" height="80" as="geometry" />
        </mxCell>
        <mxCell id="A0TnICawihOw8JF30zuv-19" value="" style="edgeStyle=orthogonalEdgeStyle;rounded=1;orthogonalLoop=1;jettySize=auto;html=1;labelBackgroundColor=none;strokeColor=#0B4D6A;fontColor=default;" edge="1" parent="WIyWlLk6GJQsqaUBKTNV-1" source="A0TnICawihOw8JF30zuv-15" target="A0TnICawihOw8JF30zuv-18">
          <mxGeometry relative="1" as="geometry" />
        </mxCell>
        <mxCell id="A0TnICawihOw8JF30zuv-15" value="更新至在账库" style="whiteSpace=wrap;html=1;rounded=1;labelBackgroundColor=none;fillColor=#09555B;strokeColor=#BAC8D3;fontColor=#EEEEEE;" vertex="1" parent="WIyWlLk6GJQsqaUBKTNV-1">
          <mxGeometry x="166.25" y="900" width="120" height="60" as="geometry" />
        </mxCell>
        <mxCell id="A0TnICawihOw8JF30zuv-17" value="验证通过" style="text;html=1;align=center;verticalAlign=middle;whiteSpace=wrap;rounded=1;labelBackgroundColor=none;fontColor=#103ef4;" vertex="1" parent="WIyWlLk6GJQsqaUBKTNV-1">
          <mxGeometry x="230" y="830" width="60" height="30" as="geometry" />
        </mxCell>
        <mxCell id="A0TnICawihOw8JF30zuv-18" value="结束" style="ellipse;whiteSpace=wrap;html=1;rounded=1;labelBackgroundColor=none;fillColor=#09555B;strokeColor=#BAC8D3;fontColor=#EEEEEE;" vertex="1" parent="WIyWlLk6GJQsqaUBKTNV-1">
          <mxGeometry x="186.25" y="1030" width="80" height="50" as="geometry" />
        </mxCell>
        <mxCell id="A0TnICawihOw8JF30zuv-20" value="开始" style="ellipse;whiteSpace=wrap;html=1;labelBackgroundColor=none;fillColor=#09555B;strokeColor=#BAC8D3;fontColor=#EEEEEE;rounded=1;" vertex="1" parent="WIyWlLk6GJQsqaUBKTNV-1">
          <mxGeometry x="166.25" y="60" width="100" height="60" as="geometry" />
        </mxCell>
        <mxCell id="A0TnICawihOw8JF30zuv-25" value="验证不通过" style="text;html=1;align=center;verticalAlign=middle;whiteSpace=wrap;rounded=1;labelBackgroundColor=none;fontColor=#2B15EE;" vertex="1" parent="WIyWlLk6GJQsqaUBKTNV-1">
          <mxGeometry x="354" y="730" width="76" height="30" as="geometry" />
        </mxCell>
        <mxCell id="A0TnICawihOw8JF30zuv-27" style="edgeStyle=orthogonalEdgeStyle;rounded=1;orthogonalLoop=1;jettySize=auto;html=1;labelBackgroundColor=none;strokeColor=#0B4D6A;fontColor=default;" edge="1" parent="WIyWlLk6GJQsqaUBKTNV-1" source="A0TnICawihOw8JF30zuv-26">
          <mxGeometry relative="1" as="geometry">
            <mxPoint x="230" y="680" as="targetPoint" />
            <Array as="points">
              <mxPoint x="641" y="765" />
            </Array>
          </mxGeometry>
        </mxCell>
        <mxCell id="A0TnICawihOw8JF30zuv-26" value="在线修改保存" style="rounded=1;whiteSpace=wrap;html=1;labelBackgroundColor=none;fillColor=#09555B;strokeColor=#BAC8D3;fontColor=#EEEEEE;" vertex="1" parent="WIyWlLk6GJQsqaUBKTNV-1">
          <mxGeometry x="450" y="740" width="120" height="50" as="geometry" />
        </mxCell>
      </root>
    </mxGraphModel>
  </diagram>
  <diagram id="v6G8euLuuFP9JuiVZ1cN" name="第 2 页">
    <mxGraphModel dx="913" dy="495" grid="1" gridSize="10" guides="1" tooltips="1" connect="1" arrows="1" fold="1" page="1" pageScale="1" pageWidth="827" pageHeight="1169" math="0" shadow="0">
      <root>
        <mxCell id="0" />
        <mxCell id="1" parent="0" />
        <mxCell id="rdgo6YlMiJ8GpsRqBRfu-5" value="" style="edgeStyle=orthogonalEdgeStyle;rounded=0;orthogonalLoop=1;jettySize=auto;html=1;" edge="1" parent="1" source="rdgo6YlMiJ8GpsRqBRfu-3" target="rdgo6YlMiJ8GpsRqBRfu-4">
          <mxGeometry relative="1" as="geometry" />
        </mxCell>
        <mxCell id="rdgo6YlMiJ8GpsRqBRfu-3" value="开始" style="ellipse;whiteSpace=wrap;html=1;" vertex="1" parent="1">
          <mxGeometry x="340" y="10" width="74" height="40" as="geometry" />
        </mxCell>
        <mxCell id="rdgo6YlMiJ8GpsRqBRfu-10" value="" style="edgeStyle=orthogonalEdgeStyle;rounded=0;orthogonalLoop=1;jettySize=auto;html=1;" edge="1" parent="1" source="rdgo6YlMiJ8GpsRqBRfu-4" target="rdgo6YlMiJ8GpsRqBRfu-9">
          <mxGeometry relative="1" as="geometry" />
        </mxCell>
        <mxCell id="rdgo6YlMiJ8GpsRqBRfu-4" value="设计前端页面显示资产列表" style="whiteSpace=wrap;html=1;" vertex="1" parent="1">
          <mxGeometry x="295.5" y="70" width="163" height="30" as="geometry" />
        </mxCell>
        <mxCell id="rdgo6YlMiJ8GpsRqBRfu-7" style="edgeStyle=orthogonalEdgeStyle;rounded=0;orthogonalLoop=1;jettySize=auto;html=1;exitX=1;exitY=0.5;exitDx=0;exitDy=0;entryX=0;entryY=0.5;entryDx=0;entryDy=0;" edge="1" parent="1" source="rdgo6YlMiJ8GpsRqBRfu-6" target="rdgo6YlMiJ8GpsRqBRfu-4">
          <mxGeometry relative="1" as="geometry" />
        </mxCell>
        <mxCell id="rdgo6YlMiJ8GpsRqBRfu-6" value="设计数据库" style="rounded=1;whiteSpace=wrap;html=1;" vertex="1" parent="1">
          <mxGeometry x="140" y="70" width="90" height="30" as="geometry" />
        </mxCell>
        <mxCell id="rdgo6YlMiJ8GpsRqBRfu-12" value="" style="edgeStyle=orthogonalEdgeStyle;rounded=0;orthogonalLoop=1;jettySize=auto;html=1;" edge="1" parent="1" source="rdgo6YlMiJ8GpsRqBRfu-9" target="rdgo6YlMiJ8GpsRqBRfu-11">
          <mxGeometry relative="1" as="geometry" />
        </mxCell>
        <mxCell id="rdgo6YlMiJ8GpsRqBRfu-9" value="用户选择需要导入的资产信息" style="rounded=1;whiteSpace=wrap;html=1;" vertex="1" parent="1">
          <mxGeometry x="298" y="130" width="158" height="30" as="geometry" />
        </mxCell>
        <mxCell id="rdgo6YlMiJ8GpsRqBRfu-18" value="" style="edgeStyle=orthogonalEdgeStyle;rounded=0;orthogonalLoop=1;jettySize=auto;html=1;" edge="1" parent="1" source="rdgo6YlMiJ8GpsRqBRfu-11" target="rdgo6YlMiJ8GpsRqBRfu-17">
          <mxGeometry relative="1" as="geometry" />
        </mxCell>
        <mxCell id="rdgo6YlMiJ8GpsRqBRfu-11" value="前端发送请求调用后端api" style="whiteSpace=wrap;html=1;rounded=1;" vertex="1" parent="1">
          <mxGeometry x="305.5" y="180" width="143" height="40" as="geometry" />
        </mxCell>
        <mxCell id="rdgo6YlMiJ8GpsRqBRfu-13" style="edgeStyle=orthogonalEdgeStyle;rounded=0;orthogonalLoop=1;jettySize=auto;html=1;exitX=0.5;exitY=1;exitDx=0;exitDy=0;" edge="1" parent="1" source="rdgo6YlMiJ8GpsRqBRfu-11" target="rdgo6YlMiJ8GpsRqBRfu-11">
          <mxGeometry relative="1" as="geometry" />
        </mxCell>
        <mxCell id="rdgo6YlMiJ8GpsRqBRfu-21" value="" style="edgeStyle=orthogonalEdgeStyle;rounded=0;orthogonalLoop=1;jettySize=auto;html=1;" edge="1" parent="1" source="rdgo6YlMiJ8GpsRqBRfu-17" target="rdgo6YlMiJ8GpsRqBRfu-20">
          <mxGeometry relative="1" as="geometry" />
        </mxCell>
        <mxCell id="rdgo6YlMiJ8GpsRqBRfu-17" value="后端接受请求查询数据库将信息返回前端" style="whiteSpace=wrap;html=1;rounded=1;" vertex="1" parent="1">
          <mxGeometry x="305.5" y="240" width="133" height="40" as="geometry" />
        </mxCell>
        <mxCell id="rdgo6YlMiJ8GpsRqBRfu-23" value="" style="edgeStyle=orthogonalEdgeStyle;rounded=0;orthogonalLoop=1;jettySize=auto;html=1;" edge="1" parent="1" source="rdgo6YlMiJ8GpsRqBRfu-20" target="rdgo6YlMiJ8GpsRqBRfu-22">
          <mxGeometry relative="1" as="geometry" />
        </mxCell>
        <mxCell id="rdgo6YlMiJ8GpsRqBRfu-20" value="前段展示资产信息的字段供用户选择，选择后发起导出请求" style="whiteSpace=wrap;html=1;rounded=1;" vertex="1" parent="1">
          <mxGeometry x="277" y="310" width="190" height="40" as="geometry" />
        </mxCell>
        <mxCell id="rdgo6YlMiJ8GpsRqBRfu-25" value="" style="edgeStyle=orthogonalEdgeStyle;rounded=0;orthogonalLoop=1;jettySize=auto;html=1;" edge="1" parent="1" source="rdgo6YlMiJ8GpsRqBRfu-22" target="rdgo6YlMiJ8GpsRqBRfu-24">
          <mxGeometry relative="1" as="geometry" />
        </mxCell>
        <mxCell id="rdgo6YlMiJ8GpsRqBRfu-22" value="后端响应请求生成excel文件并将文件传回前端" style="whiteSpace=wrap;html=1;rounded=1;" vertex="1" parent="1">
          <mxGeometry x="262" y="370" width="220" height="60" as="geometry" />
        </mxCell>
        <mxCell id="rdgo6YlMiJ8GpsRqBRfu-27" value="" style="edgeStyle=orthogonalEdgeStyle;rounded=0;orthogonalLoop=1;jettySize=auto;html=1;" edge="1" parent="1" source="rdgo6YlMiJ8GpsRqBRfu-24" target="rdgo6YlMiJ8GpsRqBRfu-26">
          <mxGeometry relative="1" as="geometry" />
        </mxCell>
        <mxCell id="rdgo6YlMiJ8GpsRqBRfu-24" value="前端提示用户下载文件" style="whiteSpace=wrap;html=1;rounded=1;" vertex="1" parent="1">
          <mxGeometry x="303" y="450" width="138" height="30" as="geometry" />
        </mxCell>
        <mxCell id="rdgo6YlMiJ8GpsRqBRfu-29" value="" style="edgeStyle=orthogonalEdgeStyle;rounded=0;orthogonalLoop=1;jettySize=auto;html=1;" edge="1" parent="1" source="rdgo6YlMiJ8GpsRqBRfu-26" target="rdgo6YlMiJ8GpsRqBRfu-28">
          <mxGeometry relative="1" as="geometry" />
        </mxCell>
        <mxCell id="rdgo6YlMiJ8GpsRqBRfu-26" value="用户修改文件后前端提供导入excel功能" style="whiteSpace=wrap;html=1;rounded=1;" vertex="1" parent="1">
          <mxGeometry x="312" y="500" width="120" height="30" as="geometry" />
        </mxCell>
        <mxCell id="rdgo6YlMiJ8GpsRqBRfu-33" value="" style="edgeStyle=orthogonalEdgeStyle;rounded=0;orthogonalLoop=1;jettySize=auto;html=1;" edge="1" parent="1" source="rdgo6YlMiJ8GpsRqBRfu-28" target="rdgo6YlMiJ8GpsRqBRfu-32">
          <mxGeometry relative="1" as="geometry" />
        </mxCell>
        <mxCell id="rdgo6YlMiJ8GpsRqBRfu-28" value="前端将用户上传的文件返回给后端" style="whiteSpace=wrap;html=1;rounded=1;" vertex="1" parent="1">
          <mxGeometry x="273" y="560" width="198" height="25" as="geometry" />
        </mxCell>
        <mxCell id="rdgo6YlMiJ8GpsRqBRfu-50" value="" style="edgeStyle=orthogonalEdgeStyle;rounded=0;orthogonalLoop=1;jettySize=auto;html=1;" edge="1" parent="1" source="rdgo6YlMiJ8GpsRqBRfu-32" target="rdgo6YlMiJ8GpsRqBRfu-49">
          <mxGeometry relative="1" as="geometry" />
        </mxCell>
        <mxCell id="rdgo6YlMiJ8GpsRqBRfu-32" value="后端接受文件并验证文件字段" style="rhombus;whiteSpace=wrap;html=1;rounded=1;" vertex="1" parent="1">
          <mxGeometry x="262" y="610" width="220" height="60" as="geometry" />
        </mxCell>
        <mxCell id="rdgo6YlMiJ8GpsRqBRfu-39" value="" style="edgeStyle=orthogonalEdgeStyle;rounded=0;orthogonalLoop=1;jettySize=auto;html=1;" edge="1" parent="1" source="rdgo6YlMiJ8GpsRqBRfu-34" target="rdgo6YlMiJ8GpsRqBRfu-38">
          <mxGeometry relative="1" as="geometry" />
        </mxCell>
        <mxCell id="rdgo6YlMiJ8GpsRqBRfu-34" value="用户保存后前端将修改信息返回给后端，后端更新数据，直至用户更新至再账库，前端发送请求" style="whiteSpace=wrap;html=1;rounded=1;" vertex="1" parent="1">
          <mxGeometry x="230" y="770" width="280" height="30" as="geometry" />
        </mxCell>
        <mxCell id="rdgo6YlMiJ8GpsRqBRfu-37" value="通过" style="text;html=1;align=center;verticalAlign=middle;whiteSpace=wrap;rounded=0;" vertex="1" parent="1">
          <mxGeometry x="378.5" y="660" width="60" height="30" as="geometry" />
        </mxCell>
        <mxCell id="rdgo6YlMiJ8GpsRqBRfu-41" value="" style="edgeStyle=orthogonalEdgeStyle;rounded=0;orthogonalLoop=1;jettySize=auto;html=1;" edge="1" parent="1" source="rdgo6YlMiJ8GpsRqBRfu-38" target="rdgo6YlMiJ8GpsRqBRfu-40">
          <mxGeometry relative="1" as="geometry" />
        </mxCell>
        <mxCell id="rdgo6YlMiJ8GpsRqBRfu-38" value="后端响应请求，并将列表保存至数据库" style="whiteSpace=wrap;html=1;rounded=1;" vertex="1" parent="1">
          <mxGeometry x="285.5" y="840" width="170" height="40" as="geometry" />
        </mxCell>
        <mxCell id="rdgo6YlMiJ8GpsRqBRfu-43" value="" style="edgeStyle=orthogonalEdgeStyle;rounded=0;orthogonalLoop=1;jettySize=auto;html=1;" edge="1" parent="1" source="rdgo6YlMiJ8GpsRqBRfu-40" target="rdgo6YlMiJ8GpsRqBRfu-42">
          <mxGeometry relative="1" as="geometry" />
        </mxCell>
        <mxCell id="rdgo6YlMiJ8GpsRqBRfu-40" value="前端提示更新成功" style="whiteSpace=wrap;html=1;rounded=1;" vertex="1" parent="1">
          <mxGeometry x="310.5" y="910" width="120" height="40" as="geometry" />
        </mxCell>
        <mxCell id="rdgo6YlMiJ8GpsRqBRfu-42" value="结束" style="ellipse;whiteSpace=wrap;html=1;rounded=1;" vertex="1" parent="1">
          <mxGeometry x="334" y="980" width="80" height="50" as="geometry" />
        </mxCell>
        <mxCell id="rdgo6YlMiJ8GpsRqBRfu-49" value="前端提示重新上传文件" style="whiteSpace=wrap;html=1;rounded=1;" vertex="1" parent="1">
          <mxGeometry x="612" y="610" width="120" height="60" as="geometry" />
        </mxCell>
        <mxCell id="rdgo6YlMiJ8GpsRqBRfu-51" value="不通过" style="text;html=1;align=center;verticalAlign=middle;whiteSpace=wrap;rounded=0;" vertex="1" parent="1">
          <mxGeometry x="500" y="600" width="60" height="30" as="geometry" />
        </mxCell>
        <mxCell id="rdgo6YlMiJ8GpsRqBRfu-54" value="" style="edgeStyle=orthogonalEdgeStyle;rounded=0;orthogonalLoop=1;jettySize=auto;html=1;" edge="1" parent="1" source="rdgo6YlMiJ8GpsRqBRfu-32" target="rdgo6YlMiJ8GpsRqBRfu-53">
          <mxGeometry relative="1" as="geometry">
            <mxPoint x="372" y="670" as="sourcePoint" />
            <mxPoint x="374" y="790" as="targetPoint" />
          </mxGeometry>
        </mxCell>
        <mxCell id="rdgo6YlMiJ8GpsRqBRfu-55" style="edgeStyle=orthogonalEdgeStyle;rounded=0;orthogonalLoop=1;jettySize=auto;html=1;exitX=0.5;exitY=1;exitDx=0;exitDy=0;entryX=0.5;entryY=0;entryDx=0;entryDy=0;" edge="1" parent="1" source="rdgo6YlMiJ8GpsRqBRfu-53" target="rdgo6YlMiJ8GpsRqBRfu-34">
          <mxGeometry relative="1" as="geometry" />
        </mxCell>
        <mxCell id="rdgo6YlMiJ8GpsRqBRfu-53" value="后端发送数据至前端渲染导出列表供用户修改" style="rounded=1;whiteSpace=wrap;html=1;" vertex="1" parent="1">
          <mxGeometry x="295.5" y="690" width="150" height="30" as="geometry" />
        </mxCell>
      </root>
    </mxGraphModel>
  </diagram>
</mxfile>
